<svg viewBox="0 0 160 81" fill="none" xmlns="http://www.w3.org/2000/svg">
<path d="M18.3691 32.5C21.5353 32.5 22.9156 31.1815 22.9156 28C22.9156 31.1815 24.2864 32.5 27.4622 32.5C24.2864 32.5 22.9156 33.8567 22.9156 37C22.9156 33.8567 21.5353 32.5 18.3691 32.5Z" fill="currentColor" stroke="currentColor" stroke-width="2.5" stroke-linejoin="round"/>
<path d="M128.496 60.5C131.662 60.5 133.043 59.1815 133.043 56C133.043 59.1815 134.413 60.5 137.589 60.5C134.413 60.5 133.043 61.8567 133.043 65C133.043 61.8567 131.662 60.5 128.496 60.5Z" fill="currentColor" stroke="currentColor" stroke-width="2.5" stroke-linejoin="round"/>
<ellipse cx="135.54" cy="11.5855" rx="1.60191" ry="1.58552" fill="currentColor"/>
<ellipse cx="111.912" cy="29.5855" rx="1.60191" ry="1.58552" fill="currentColor"/>
<ellipse cx="41.1878" cy="14.5855" rx="1.60191" ry="1.58552" fill="currentColor"/>
<ellipse cx="159.053" cy="34.5725" rx="0.947469" ry="0.937778" fill="currentColor"/>
<ellipse cx="131.188" cy="37.7347" rx="0.947469" ry="0.937778" fill="currentColor"/>
<ellipse cx="0.947469" cy="22.178" rx="0.947469" ry="0.937778" fill="currentColor"/>
<ellipse cx="21.9025" cy="58.1087" rx="0.947469" ry="0.937778" fill="currentColor"/>
<ellipse cx="2.26011" cy="68.6656" rx="1.60191" ry="1.58552" fill="currentColor"/>
<path d="M89.8437 41.6406C89.8437 38.1596 88.4609 34.8213 85.9995 32.3598C83.5381 29.8984 80.1997 28.5156 76.7187 28.5156M76.7187 28.5156C73.2378 28.5156 69.8994 29.8984 67.438 32.3598C64.9766 34.8213 63.5937 38.1596 63.5937 41.6406M76.7187 28.5156V24.1253C76.7215 23.8268 76.7909 23.5326 76.9219 23.2643C77.0528 22.996 77.242 22.7603 77.4756 22.5744C77.9729 22.1782 78.6068 21.995 79.2387 22.0647C83.8459 22.4262 88.1985 24.3232 91.5995 27.4521C95.0005 30.581 97.2531 34.7607 97.9966 39.3219C98.0321 39.6165 98.0006 39.9153 97.9043 40.196C97.8081 40.4766 97.6497 40.732 97.4409 40.9428C97.2208 41.1654 96.9584 41.3418 96.6691 41.4616C96.3799 41.5814 96.0696 41.6423 95.7566 41.6406H91.4844M88.6953 25.2519L92.8603 21.0475L99.005 27.2491L94.9734 31.3178M55.3906 64.6094H98.0469M60.8594 41.6406H92.5781C93.1583 41.6406 93.7147 41.8711 94.1249 42.2813C94.5352 42.6916 94.7656 43.248 94.7656 43.8281V64.6094H58.6719V43.8281C58.6719 43.248 58.9023 42.6916 59.3126 42.2813C59.7228 41.8711 60.2792 41.6406 60.8594 41.6406ZM96.8591 25.0812L94.9406 23.1562C93.9788 22.1854 93.4392 20.8741 93.4392 19.5075C93.4392 18.1409 93.9788 16.8296 94.9406 15.8587L95.0128 15.7865C95.1331 15.6645 95.2765 15.5675 95.4346 15.5013C95.5927 15.4351 95.7624 15.4011 95.9338 15.4011C96.1051 15.4011 96.2748 15.4351 96.4329 15.5013C96.591 15.5675 96.7344 15.6645 96.8547 15.7865L104.227 23.224C104.472 23.4718 104.609 23.8063 104.609 24.1548C104.609 24.5034 104.472 24.8378 104.227 25.0856C103.744 25.5721 103.17 25.9582 102.538 26.2215C101.905 26.4849 101.227 26.6202 100.542 26.6198C99.8568 26.6194 99.1786 26.4832 98.5465 26.2191C97.9143 25.9551 97.3408 25.5683 96.8591 25.0812ZM72.8906 49.8437H80.5469C80.837 49.8437 81.1152 49.959 81.3203 50.1641C81.5254 50.3692 81.6406 50.6474 81.6406 50.9375V64.6094H71.7969V50.9375C71.7969 50.6474 71.9121 50.3692 72.1172 50.1641C72.3223 49.959 72.6005 49.8437 72.8906 49.8437Z" stroke="currentColor" stroke-width="2.5" stroke-linecap="round" stroke-linejoin="round"/>
</svg>
