<?xml version="1.0" encoding="UTF-8"?>
<svg width="20px" height="19px" viewBox="0 0 20 19" version="1.1" xmlns="http://www.w3.org/2000/svg" xmlns:xlink="http://www.w3.org/1999/xlink">
    <!-- Generator: sketchtool 61 (101010) - https://sketch.com -->
    <title>F3DD2EE5-E84F-44E7-9FEE-8B6940E575A5</title>
    <desc>Created with sketchtool.</desc>
    <g id="DevTools-V1" stroke="none" stroke-width="1" fill="none" fill-rule="evenodd">
        <g id="Apollo-Dev-Tools-Light" transform="translate(-12.000000, -149.000000)" fill="#FFFFFF" fill-rule="nonzero">
            <g id="apollo-mark" transform="translate(12.000000, 149.000000)">
                <polygon id="Path" points="11.1774593 4.95652174 8.82254069 4.95652174 5.41666667 13.2173913 7.5477707 13.2173913 8.10244161 11.81786 11.3234253 11.81786 10.7395612 10.2729229 8.61818825 10.2729229 10 6.71956761 12.4522293 13.2173913 14.5833333 13.2173913"></polygon>
                <path d="M19.22875,6.935 C19.2191667,6.9065 19.2191667,6.878 19.2,6.8495 C19.2,6.84 19.1904167,6.821 19.1904167,6.821 C19.11375,6.6595 18.9508333,6.5455 18.7591667,6.5455 C18.4908333,6.5455 18.28,6.7545 18.28,7.0205 C18.28,7.0775 18.2895833,7.125 18.30875,7.1725 L18.30875,7.1725 C18.5195833,7.923 18.625,8.702 18.625,9.5 C18.625,11.78 17.7241667,13.927 16.095,15.542 C14.4658333,17.157 12.3,18.05 10,18.05 C7.7,18.05 5.53416667,17.157 3.905,15.542 C2.27583333,13.927 1.375,11.78 1.375,9.5 C1.375,7.22 2.27583333,5.073 3.905,3.458 C5.53416667,1.843 7.7,0.95 10,0.95 C12.0604167,0.95 14.0058333,1.6625 15.5583333,2.964 C15.5104167,3.097 15.4816667,3.2395 15.4816667,3.3915 C15.4816667,4.0375 16.00875,4.5505 16.6508333,4.5505 C17.3025,4.5505 17.82,4.028 17.82,3.3915 C17.82,2.755 17.2929167,2.2325 16.6508333,2.2325 C16.5070833,2.2325 16.3729167,2.261 16.2483333,2.299 C14.57125,0.8645 12.38625,0 10,0 C4.71,0 0.416666667,4.256 0.416666667,9.5 C0.416666667,14.744 4.71,19 10,19 C15.29,19 19.5833333,14.744 19.5833333,9.5 C19.5833333,8.6165 19.45875,7.752 19.22875,6.935 Z" id="Path"></path>
            </g>
        </g>
    </g>
</svg>